<svg width="19" height="19" viewBox="0 0 19 19" fill="none" xmlns="http://www.w3.org/2000/svg">
<path d="M2.5 13V19H0.5V0H9.882C10.0677 9.91486e-05 10.2496 0.0518831 10.4075 0.149552C10.5654 0.247222 10.693 0.386919 10.776 0.553L11.5 2H17.5C17.7652 2 18.0196 2.10536 18.2071 2.29289C18.3946 2.48043 18.5 2.73478 18.5 3V14C18.5 14.2652 18.3946 14.5196 18.2071 14.7071C18.0196 14.8946 17.7652 15 17.5 15H11.118C10.9323 14.9999 10.7504 14.9481 10.5925 14.8504C10.4346 14.7528 10.307 14.6131 10.224 14.447L9.5 13H2.5ZM2.5 2V11H10.736L11.736 13H16.5V4H10.264L9.264 2H2.5Z" fill="#718096"/>
</svg>
