<svg width="24" height="25" viewBox="0 0 24 25" fill="none" xmlns="http://www.w3.org/2000/svg">
<mask id="mask0_1817_34" style="mask-type:alpha" maskUnits="userSpaceOnUse" x="0" y="0" width="24" height="25">
<rect y="0.834961" width="24" height="24" fill="#D9D9D9"/>
</mask>
<g mask="url(#mask0_1817_34)">
<path d="M12 20.835C11.45 20.835 10.9793 20.6393 10.588 20.248C10.196 19.856 10 19.385 10 18.835C10 18.285 10.196 17.814 10.588 17.422C10.9793 17.0306 11.45 16.835 12 16.835C12.55 16.835 13.021 17.0306 13.413 17.422C13.8043 17.814 14 18.285 14 18.835C14 19.385 13.8043 19.856 13.413 20.248C13.021 20.6393 12.55 20.835 12 20.835ZM12 14.835C11.45 14.835 10.9793 14.639 10.588 14.247C10.196 13.8556 10 13.385 10 12.835C10 12.285 10.196 11.814 10.588 11.422C10.9793 11.0306 11.45 10.835 12 10.835C12.55 10.835 13.021 11.0306 13.413 11.422C13.8043 11.814 14 12.285 14 12.835C14 13.385 13.8043 13.8556 13.413 14.247C13.021 14.639 12.55 14.835 12 14.835ZM12 8.83496C11.45 8.83496 10.9793 8.63896 10.588 8.24696C10.196 7.85563 10 7.38496 10 6.83496C10 6.28496 10.196 5.81429 10.588 5.42296C10.9793 5.03096 11.45 4.83496 12 4.83496C12.55 4.83496 13.021 5.03096 13.413 5.42296C13.8043 5.81429 14 6.28496 14 6.83496C14 7.38496 13.8043 7.85563 13.413 8.24696C13.021 8.63896 12.55 8.83496 12 8.83496Z" fill="#CBD5E0"/>
</g>
</svg>
